<?xml version="1.0" encoding="UTF-8" standalone="no"?>
<!-- Generator: Moho 12.5 build 22438 -->

<svg
   version="1.1"
   id="Frame_0"
   width="256.32623"
   height="374.5791"
   sodipodi:docname="bottle_step_3.svg"
   inkscape:version="1.3 (0e150ed6c4, 2023-07-21)"
   xml:space="preserve"
   xmlns:inkscape="http://www.inkscape.org/namespaces/inkscape"
   xmlns:sodipodi="http://sodipodi.sourceforge.net/DTD/sodipodi-0.dtd"
   xmlns="http://www.w3.org/2000/svg"
   xmlns:svg="http://www.w3.org/2000/svg"><defs
     id="defs14" /><sodipodi:namedview
     id="namedview14"
     pagecolor="#ffffff"
     bordercolor="#000000"
     borderopacity="0.25"
     inkscape:showpageshadow="2"
     inkscape:pageopacity="0.0"
     inkscape:pagecheckerboard="0"
     inkscape:deskcolor="#d1d1d1"
     inkscape:zoom="0.74907407"
     inkscape:cx="158.1953"
     inkscape:cy="258.9864"
     inkscape:window-width="1920"
     inkscape:window-height="1006"
     inkscape:window-x="0"
     inkscape:window-y="0"
     inkscape:window-maximized="1"
     inkscape:current-layer="Frame_0" /><g
     id="Water_Bottle"
     transform="translate(-566.52233,-151.17445)"><g
       id="g408"
       transform="matrix(0.54006891,0,0,0.54006891,500.61016,135.25288)"><g
         id="XMLID_2_"><path
           fill="#479fdc"
           d="m 331.818,460.483 c 35.348,-0.012 70.704,-0.051 106.052,0.02 -0.008,1.006 -0.016,2.017 -0.024,3.031 -35.336,0.032 -70.676,0.004 -106.016,0.012 -0.035,-1.026 -0.039,-2.045 -0.012,-3.063 z"
           id="path1-3" /><path
           fill="#6584a5"
           d="m 331.806,453.661 c 13.484,-0.051 98.522,-0.042 106.068,0.008 -0.012,1.022 -0.016,2.044 -0.024,3.07 -35.34,-0.048 -70.684,-0.055 -106.024,0.004 -0.035,-1.03 -0.031,-2.06 -0.02,-3.082 z"
           id="path2-6" /><path
           fill="#728eb0"
           d="m 331.826,440 c 35.34,0.036 70.68,0.032 106.02,0 0.012,1.022 0.016,2.044 0.024,3.07 -15.378,0.082 -99.408,0.052 -106.084,0.012 0.009,-1.03 0.016,-2.06 0.04,-3.082 z"
           id="path3-7" /><path
           fill="#355278"
           d="m 331.767,446.858 c 13.678,-0.067 102.314,-0.166 106.135,0.02 -0.048,0.998 -0.048,2.005 -0.008,3.015 -15.343,0.11 -98.496,0.086 -106.119,-0.004 0.027,-1.014 0.027,-2.024 -0.008,-3.031 z"
           id="path4-5" /><path
           fill="#b7d9ee"
           d="m 437.87,460.503 c -35.348,-0.071 -70.704,-0.032 -106.052,-0.02 -0.028,1.018 -0.024,2.036 0.012,3.063 35.34,-0.008 70.68,0.02 106.016,-0.012 0.009,-1.014 0.016,-2.025 0.024,-3.031 z m -107.288,-1.292 c 13.76,-0.1 99.659,-0.086 108.552,-0.008 0.083,1.866 0.055,3.732 0.02,5.602 -13.869,0.092 -101.78,0.061 -108.564,0.028 -0.071,-1.878 -0.063,-3.752 -0.008,-5.622 z"
           id="path5-3" /><path
           fill="#1c4c82"
           d="m 439.122,451.196 c -36.168,-0.004 -72.34,0.055 -108.512,-0.032 -0.103,-1.858 -0.095,-3.716 -0.008,-5.566 36.18,0.008 72.36,0 108.54,0 0.06,1.862 0.083,3.732 -0.02,5.598 z m -107.355,-4.338 c 0.036,1.006 0.036,2.017 0.008,3.031 7.816,0.092 91.158,0.111 106.119,0.004 -0.04,-1.01 -0.04,-2.017 0.008,-3.015 -3.851,-0.187 -92.274,-0.088 -106.135,-0.02 z"
           id="path6-5" /><path
           fill="#afd9f2"
           d="m 331.826,456.743 c 35.34,-0.059 70.684,-0.052 106.024,-0.004 0.008,-1.026 0.012,-2.048 0.024,-3.07 -7.481,-0.049 -92.452,-0.06 -106.068,-0.008 -0.011,1.022 -0.015,2.052 0.02,3.082 z m 107.316,1.288 c -36.184,0.044 -72.368,0.055 -108.552,-0.008 -0.036,-1.898 -0.139,-3.807 0.071,-5.697 36.14,0.02 72.285,0.016 108.429,0.004 0.163,1.893 0.104,3.799 0.052,5.701 z"
           id="path7-6" /><path
           fill="#7490b7"
           d="m 330.578,438.78 c 36.196,-0.02 72.392,-0.036 108.588,0.008 0.024,1.854 0.036,3.712 -0.024,5.57 -13.621,0.087 -99.876,0.069 -108.56,0.012 -0.055,-1.866 -0.047,-3.728 -0.004,-5.59 z m 1.209,4.303 c 7.06,0.043 90.869,0.069 106.084,-0.012 -0.008,-1.026 -0.012,-2.048 -0.024,-3.07 -35.34,0.032 -70.68,0.036 -106.02,0 -0.025,1.021 -0.032,2.051 -0.04,3.082 z"
           id="path8-2" /></g><path
         fill="#408dc1"
         d="m 331.822,433.162 c 35.348,-0.016 70.692,-0.04 106.04,0.012 -0.004,1.038 -0.004,2.076 0,3.122 -14.876,0.058 -99.116,0.043 -106.048,0.004 -0.023,-1.05 -0.019,-2.096 0.008,-3.138 z"
         id="path9-9" /><path
         fill="#355278"
         d="m 136.901,408.412 c -4.929,-0.052 -9.857,-0.055 -14.782,0.004 -0.143,-37.38 0.008,-74.773 -0.075,-112.157 4.972,-0.024 9.948,-0.055 14.924,0.02 -0.091,37.38 0.048,74.756 -0.067,112.133 z"
         id="path10-1" /><path
         fill="#194871"
         d="m 274.462,47.392 c 20.222,0.278 49.884,0.848 49.884,0.848 7.495,18.325 0.43,32.544 -3.154,35.879 -9.833,-1.504 -47.075,-6.136 -49.896,-6.228 0.798,-1.926 2.956,-5.164 2.861,-12.654 0.646,-13.103 -0.148,-12.357 0.305,-17.845 z"
         id="path11-2" /><path
         fill="#51a0d6"
         d="m 221.293,32.119 c 8.613,7.402 3.618,39.247 -4.992,48.585 -6.89,6.874 -12.58,-3.521 -14.477,-5.341 -2.587,-2.916 -6.739,-3.451 -10.4,-3.772 -12.356,-1.505 -26.962,-2.122 -35.348,-1.957 -3.213,0.317 -6.474,0.511 -9.679,0.04 -0.67,0.812 -0.947,-0.055 -1.173,-0.487 l 0.606,0.654 c 8.922,-7.1 7.164,-34.043 -1.121,-36.14 19.044,-14.052 39.293,12.446 59.813,1.177 9.615,-4.641 11.713,-7.109 16.771,-2.759 z"
         id="path12-7" /><path
         fill="#88a3bd"
         d="m 149.583,43.474 c 3.339,15.725 -3.706,32.685 -9.445,21.941 -8.183,-16.777 3.719,-44.613 9.445,-21.941 z"
         id="path13-0" /><path
         fill="#355278"
         d="m 179.111,278.993 c 42.321,0.075 84.642,0.02 126.963,0.028 0.055,3.154 0.052,6.307 -0.004,9.461 -42.321,0.008 -84.642,-0.036 -126.963,0.02 -0.087,-3.17 -0.095,-6.344 0.004,-9.509 z"
         id="path14" /><path
         fill="#728eb0"
         d="m 279.826,215.012 c -40.242,0.017 -73.442,0.198 -73.442,0.198 0.005,-0.341 -2.278,-67.412 -2.278,-67.412 39.016,-3.302 64.677,-0.915 72.566,-0.951 0.075,0.453 3.13,67.891 3.154,68.165 z"
         id="path15" /><path
         fill="#355278"
         d="m 303.681,254.33 c -0.103,7.579 -0.016,15.162 -0.04,22.745 -14.089,0.051 -110.56,0.047 -121.943,0.004 -0.024,-7.583 0.059,-15.166 -0.036,-22.745 5.059,-0.145 116.36,-0.129 122.019,-0.004 z"
         id="path16" /><path
         fill="#88a3bd"
         d="m 280.104,240.475 c -22.631,-1.569 -26.282,-4.697 -80.831,0.131 -0.483,-6.058 -0.258,-12.143 -0.741,-18.197 1.726,0.048 76.265,0.758 87.265,1.01 -0.111,5.82 -0.004,11.644 -0.052,17.464 -1.878,-0.218 -3.791,0.04 -5.641,-0.408 z"
         id="path17" /><path
         fill="#2263a5"
         d="m 273.119,46.667 c -0.549,7.139 1.226,22.135 -2.322,29.175 -5.677,11.176 -9.602,13.105 -13.015,14.869 -0.289,-4.414 -0.337,-8.839 -0.269,-13.26 -2.046,-0.784 -17.599,-0.714 -17.872,-0.717 -6.85,-0.083 -7.7,4.791 -10.721,6.343 -3.669,1.919 -9.637,0.476 -13.534,-0.083 -0.555,-0.206 0.674,-0.353 0.662,-0.325 9.603,-7.473 15.634,-42.789 6.327,-51.33 51.125,3.63 50.126,-0.622 50.744,15.328 z"
         id="path18" /><path
         fill="#4ea5e0"
         d="m 303.78,252.915 c -40.697,-0.02 -81.393,0.087 -122.09,0.028 0.048,-2.936 -0.044,-5.879 0.055,-8.815 92.263,-7.913 51.376,-3.036 90.343,-2.841 0,0 31.326,2.662 31.648,2.662 0.06,2.988 0.072,5.975 0.044,8.966 z"
         id="path19" /><path
         fill="#7cbee4"
         d="m 221.67,144.554 c -0.031,-0.226 -2.228,-57.201 -2.203,-59.504 3.467,0.174 7.278,0.899 10.416,-1.034 2.393,-1.244 3.288,-4.279 5.939,-5.146 4.262,-2.017 16.217,-0.355 20.428,-0.42 0.167,13.66 2.108,65.544 2.128,66.017 -0.018,-0.001 -36.708,0.087 -36.708,0.087 z"
         id="path20" /><path
         fill="#9cb9d5"
         d="m 281.094,217.175 c 1.331,1.696 2.857,3.225 4.168,4.937 -48.96,-0.77 -74.756,-0.748 -85.537,-0.891 7.57,-5.53 5.327,-4.507 7.86,-4.647 17.547,0.243 71.319,-1.459 73.509,0.601 z"
         id="path21" /><path
         fill="#6584a5"
         d="m 433.366,424.628 c 1.658,1.216 0.552,3.454 1.252,7.266 -5.616,-0.001 -91.888,-0.046 -98.196,0.103 2.014,-0.047 4.841,-3.668 5.855,-5.139 1.701,-2.466 2.269,-4.68 2.408,-7.68 0.23,-4.97 -0.841,-10.002 -3.103,-14.436 -2.217,-4.346 -6.514,-6.859 -10.834,-8.838 -11.81,-5.197 -20.76,-4.74 -48.565,6.505 -14.259,5.547 -50.076,11.659 -97.249,-0.238 -15.745,-3.833 -22.652,-9.096 -32.781,-8.51 -11.352,0.919 -7.993,10.53 -11.699,14.588 -0.8,0.178 -1.632,0.689 -2.452,0.372 0,0 0.172,6.603 0.25,-106.052 0.258,-0.4 -0.685,-1.41 -0.17,-1.418 5.569,15.344 25.415,16.804 37.357,7.706 9.809,-7.294 9.125,-17.998 9.516,-19.16 39.009,0.083 78.045,0.004 117.066,0.04 6.75,15.076 20.619,11.629 53.791,39.29 19.972,16.493 45.846,46.107 55.055,71.631 4.809,13.833 15.346,17.559 22.499,23.97 z"
         id="path22" /></g><ellipse
       style="fill:none;fill-opacity:1;stroke:#000000;stroke-width:0.722199;stroke-opacity:1"
       id="path90"
       cx="710.64935"
       cy="488.3183"
       rx="111.83812"
       ry="13.497705" /><path
       style="fill:none;fill-opacity:1;stroke:#000000;stroke-width:0.722199;stroke-opacity:1"
       d="m 819.95666,491.09014 c -107.98163,78.57592 -221.74799,-2.41031 -221.74799,-2.41031 0,0 3.37443,-0.48207 0,0"
       id="path91" /><path
       style="fill:#90dbf3;fill-opacity:1;stroke:#000000;stroke-width:0.681737;stroke-opacity:1"
       d="m 703.04735,524.24823 c -18.27051,-1.42087 -39.95019,-6.31422 -58.4735,-13.19812 -8.61514,-3.20169 -33.86201,-14.88427 -33.32546,-15.42082 0.12779,-0.1278 3.73177,0.36531 8.00883,1.0958 8.93689,1.52635 22.63883,3.04196 38.7955,4.29127 15.46129,1.19554 88.82791,1.18459 104.98749,-0.0157 16.47559,-1.22373 33.75574,-3.21343 42.22363,-4.86178 3.9128,-0.76166 7.23702,-1.26199 7.38716,-1.11184 0.4834,0.4834 -15.91787,9.88178 -23.1621,13.27252 -26.81153,12.54942 -57.45374,18.20296 -86.44155,15.94864 z"
       id="path92" /><path
       style="fill:#257de9;fill-opacity:1;stroke:#000000;stroke-width:0.681737;stroke-opacity:1"
       d="m 674.41441,500.41425 c -37.7248,-1.98958 -63.15492,-5.31477 -70.82242,-9.26061 -5.70734,-2.93709 -3.69531,-5.25872 6.90763,-7.9705 38.6909,-9.89546 157.74656,-10.11609 198.73089,-0.36827 7.58278,1.8035 12.43909,3.90103 12.43909,5.37266 0,4.89199 -28.46159,9.77251 -69.87804,11.9825 -11.36135,0.60624 -67.17269,0.7824 -77.37715,0.24422 z"
       id="path93" /><g
       id="g93"
       transform="matrix(0.03959095,0,0,0.04646891,692.23278,391.81689)"><path
         d="m 641.09,980.93 c -154.59,0 -279.9,-126.79 -279.9,-283.19 0,-156.4 129.8,-322.81 283.8,-462.81 148,136 276,306.41 276,462.81 0,156.4 -125.32,283.19 -279.9,283.19 z"
         fill="#73cdfb"
         id="path1" /><path
         d="m 619.6,339.37 c -45.526,24.751 -154.79,162.24 -177.98,208.62 -17.727,35.453 -32,86.326 -32,126 0,20.852 -13.677,56.994 8,70 3.43,2.058 8,0 12,0 28.735,0 41.756,-23.268 50,-48 35.551,-106.65 64.738,-217.11 128,-312 7.817,-11.725 20.891,-27.325 16,-42"
         fill="#ffffff"
         fill-opacity="0.525"
         id="path2" /><path
         d="m 361.83,679.62 c 162.64,416.28 514.64,116.28 551.37,80.1 -15.852,84.003 -76.696,159.51 -156.92,196.2 -36.866,16.858 -74.762,24.498 -115.19,25.016 -21.26,-0.007 -42.506,-2.42 -63.213,-7.252 -80.369,-18.757 -148.86,-73.505 -186.07,-147.01 -19.474,-38.475 -28.92,-78.635 -30.53,-121.61 -0.181,-11.242 -0.175,-4.5 0.291,-20.224 z"
         fill="#5191b3"
         fill-opacity="0.347"
         id="path3" /><path
         d="m 861.4,646.95 c -18.47,4.454 -30.98,31.865 -41.672,47.025 -15.28,21.663 -23.023,129.82 27.025,121.17 7.608,-1.314 16.884,-1.325 23.309,-6.057 28.77,-21.187 75.632,-177.47 -13.788,-162.02"
         fill="#ffffff"
         fill-opacity="0.274"
         id="path4" /><path
         d="m 1015.9,567.86 c -82.958,0 -150.21,-64.178 -150.21,-143.35 0,-79.168 69.659,-163.4 152.3,-234.27 79.423,68.842 148.11,155.1 148.11,234.27 0,79.168 -67.25,143.35 -150.21,143.35 z"
         fill="#73cdfb"
         id="path5" /><path
         d="m 1004.4,243.11 c -24.431,12.529 -83.066,82.125 -95.51,105.6 -9.513,17.946 -17.172,43.697 -17.172,63.78 0,10.555 -7.34,28.85 4.293,35.433 1.84,1.042 4.293,0 6.44,0 15.42,0 22.408,-11.778 26.832,-24.297 19.078,-53.986 34.741,-109.9 68.69,-157.93 4.195,-5.935 11.211,-13.832 8.586,-21.26"
         fill="#ffffff"
         fill-opacity="0.525"
         id="path6" /><path
         d="m 866.06,415.34 c 87.278,210.71 276.18,58.858 295.89,40.546 -8.507,42.521 -41.158,80.742 -84.213,99.314 -19.783,8.533 -40.12,12.4 -61.816,12.662 -11.408,-0.003 -22.81,-1.224 -33.922,-3.67 -43.13,-9.495 -79.886,-37.208 -99.852,-74.417 -10.451,-19.476 -15.52,-39.804 -16.384,-61.559 -0.097,-5.691 -0.094,-2.278 0.156,-10.238 z"
         fill="#5191b3"
         fill-opacity="0.347"
         id="path7" /><path
         d="m 1134.1,398.8 c -9.911,2.255 -16.625,16.13 -22.363,23.803 -8.2,10.966 -12.355,65.712 14.503,61.334 4.083,-0.665 9.061,-0.671 12.509,-3.066 15.439,-10.724 40.587,-89.833 -7.399,-82.012"
         fill="#ffffff"
         fill-opacity="0.274"
         id="path8" /><path
         d="m 203.28,777.17 c -55.767,0 -100.98,-50.388 -100.98,-112.54 0,-62.157 46.827,-128.29 102.38,-183.93 53.391,54.05 99.567,121.78 99.567,183.93 0,62.157 -45.208,112.54 -100.98,112.54 z"
         fill="#73cdfb"
         id="path9" /><path
         d="m 195.53,522.2 c -16.423,9.837 -55.84,64.479 -64.205,82.909 -6.395,14.09 -11.544,34.308 -11.544,50.075 0,8.287 -4.934,22.651 2.886,27.82 1.237,0.818 2.886,0 4.329,0 10.366,0 15.064,-9.248 18.038,-19.077 12.824,-42.385 23.354,-86.282 46.176,-124 2.82,-4.66 7.536,-10.86 5.772,-16.692"
         fill="#ffffff"
         fill-opacity="0.525"
         id="path10" /><path
         d="m 102.54,657.42 c 58.671,165.44 185.66,46.21 198.91,31.833 -5.719,33.385 -27.669,63.393 -56.611,77.974 -13.299,6.7 -26.971,9.736 -41.555,9.942 -7.669,-0.003 -15.334,-0.962 -22.804,-2.882 -28.993,-7.454 -53.702,-29.212 -67.124,-58.427 -7.025,-15.29 -10.433,-31.251 -11.014,-48.331 -0.065,-4.468 -0.063,-1.789 0.105,-8.038 z"
         fill="#5191b3"
         fill-opacity="0.347"
         id="path11" /><path
         d="m 282.76,644.44 c -6.663,1.771 -11.176,12.664 -15.034,18.689 -5.512,8.609 -8.305,51.591 9.75,48.155 2.744,-0.523 6.091,-0.527 8.409,-2.408 10.378,-8.42 27.284,-70.53 -4.974,-64.389"
         fill="#ffffff"
         fill-opacity="0.274"
         id="path12" /></g><path
       style="fill:#73cdfb;fill-opacity:1;stroke:#000000;stroke-width:0.471987;stroke-opacity:1"
       d="m 675.41371,499.83523 c -17.08754,-0.72063 -37.48762,-2.50409 -51.47304,-4.49999 -15.14441,-2.1613 -24.15547,-5.30248 -22.57006,-7.86773 0.53231,-0.86129 5.02888,-2.59516 9.94576,-3.83506 33.39638,-8.42164 131.78322,-9.98567 182.65436,-2.90361 13.67482,1.90375 24.42764,4.71744 26.4133,6.91157 0.82223,0.90856 0.81352,0.96571 -0.27186,1.78441 -5.0346,3.7976 -29.12654,7.6572 -60.44874,9.68406 -12.72686,0.82355 -70.19622,1.31902 -84.24972,0.72635 z"
       id="path94" /></g></svg>
