<?xml version="1.0" encoding="UTF-8" standalone="no"?>
<!-- Generator: Moho 12.5 build 22438 -->

<svg
   version="1.1"
   id="Frame_0"
   width="252.22382"
   height="552.10486"
   sodipodi:docname="bottle_step_2.svg"
   inkscape:version="1.3 (0e150ed6c4, 2023-07-21)"
   xmlns:inkscape="http://www.inkscape.org/namespaces/inkscape"
   xmlns:sodipodi="http://sodipodi.sourceforge.net/DTD/sodipodi-0.dtd"
   xmlns:xlink="http://www.w3.org/1999/xlink"
   xmlns="http://www.w3.org/2000/svg"
   xmlns:svg="http://www.w3.org/2000/svg">
  <defs
     id="defs14">
    <pattern
       inkscape:collect="always"
       xlink:href="#shading33"
       preserveAspectRatio="xMidYMid"
       id="pattern90"
       patternTransform="translate(969.22376,1280.4113)" />
    <pattern
       patternUnits="userSpaceOnUse"
       width="684.32459"
       height="639.79"
       patternTransform="translate(956.48011,1282.2992)"
       preserveAspectRatio="xMidYMid"
       id="shading33"
       style="fill:#000000"
       inkscape:label="Circle vertical lines halftone shading"
       inkscape:collect="always"
       inkscape:isstock="true">
      <path
         id="path33"
         style="fill-rule:nonzero;stroke:none;stroke-width:0.0239514;stroke-linecap:square;paint-order:markers fill stroke;stop-color:#000000"
         d="M 684.32459,0.001 H 342.16229 V 9.929 L 684.32459,0 Z m 0,9.118 h -342.1623 v 9.926 l 342.1623,-9.636 z m 0,9.117 h -342.1623 v 9.926 l 342.1623,-9.344 z m 0,9.118 h -342.1623 v 9.925 l 342.1623,-9.053 z m 0,9.118 h -342.1623 v 9.923 l 342.1623,-8.76 z m 0,9.117 h -342.1623 v 9.923 l 342.1623,-8.468 z m 0,9.118 h -342.1623 v 9.921 l 342.1623,-8.176 z m 0,9.118 h -342.1623 v 9.92 l 342.1623,-7.884 z m 0,9.117 h -342.1623 v 9.92 l 342.1623,-7.592 z m 0,9.118 h -342.1623 v 9.918 l 342.1623,-7.3 z m 0,9.117 h -342.1623 v 9.918 l 342.1623,-7.008 z m 0,9.118 h -342.1623 v 9.917 l 342.1623,-6.716 z m 0,9.118 h -342.1623 v 9.915 l 342.1623,-6.424 z m 0,9.117 h -342.1623 v 9.915 l 342.1623,-6.132 z m 0,9.118 h -342.1623 v 9.914 l 342.1623,-5.84 z m 0,9.117 h -342.1623 v 9.913 l 342.1623,-5.548 z m 0,9.118 h -342.1623 v 9.912 l 342.1623,-5.256 z m 0,9.118 h -342.1623 v 9.911 l 342.1623,-4.964 z m 0,9.117 h -342.1623 v 9.91 l 342.1623,-4.672 z m 0,9.118 h -342.1623 v 9.909 l 342.1623,-4.38 z m 0,9.118 h -342.1623 v 9.908 l 342.1623,-4.089 z m 0,9.117 h -342.1623 v 9.907 l 342.1623,-3.796 z m 0,9.118 h -342.1623 v 9.906 l 342.1623,-3.504 z m 0,9.117 h -342.1623 v 9.905 l 342.1623,-3.212 z m 0,9.118 h -342.1623 v 9.904 l 342.1623,-2.92 z m 0,9.118 h -342.1623 v 9.903 l 342.1623,-2.628 z m 0,9.117 h -342.1623 v 9.902 l 342.1623,-2.336 z m 0,9.118 h -342.1623 v 9.901 l 342.1623,-2.044 z m 0,9.117 h -342.1623 v 9.901 l 342.1623,-1.752 z m 0,9.118 h -342.1623 v 9.899 l 342.1623,-1.46 z m 0,9.118 h -342.1623 v 9.898 l 342.1623,-1.168 z m 0,9.117 h -342.1623 v 9.898 l 342.1623,-0.876 z m 0,9.118 h -342.1623 v 9.896 l 342.1623,-0.584 z m 0,9.118 h -342.1623 v 9.895 l 342.1623,-0.292 z m 0,9.117 h -342.1623 v 9.895 h 342.1623 z M 0,10e-4 H 342.16229 V 9.929 L 0,0 Z m 0,9.118 h 342.16229 v 9.926 L 0,9.409 Z m 0,9.117 h 342.16229 v 9.926 L 0,18.818 Z m 0,9.118 h 342.16229 v 9.925 L 0,28.226 Z m 0,9.118 h 342.16229 v 9.923 L 0,37.635 Z m 0,9.117 h 342.16229 v 9.923 L 0,47.044 Z m 0,9.118 h 342.16229 v 9.921 L 0,56.452 Z m 0,9.118 h 342.16229 v 9.92 L 0,65.861 Z m 0,9.117 h 342.16229 v 9.92 L 0,75.27 Z m 0,9.118 h 342.16229 v 9.918 L 0,84.678 Z m 0,9.117 h 342.16229 v 9.918 L 0,94.087 Z m 0,9.118 h 342.16229 v 9.917 L 0,103.496 Z m 0,9.118 h 342.16229 v 9.915 L 0,112.904 Z m 0,9.117 h 342.16229 v 9.915 L 0,122.313 Z m 0,9.118 h 342.16229 v 9.914 L 0,131.722 Z m 0,9.117 h 342.16229 v 9.913 L 0,141.13 Z m 0,9.118 h 342.16229 v 9.912 L 0,150.539 Z m 0,9.118 h 342.16229 v 9.911 L 0,159.948 Z m 0,9.117 h 342.16229 v 9.91 L 0,169.356 Z m 0,9.118 h 342.16229 v 9.909 L 0,178.765 Z m 0,9.118 h 342.16229 v 9.908 L 0,188.173 Z m 0,9.117 h 342.16229 v 9.907 L 0,197.582 Z m 0,9.118 h 342.16229 v 9.906 L 0,206.991 Z m 0,9.117 h 342.16229 v 9.905 L 0,216.399 Z m 0,9.118 h 342.16229 v 9.904 L 0,225.808 Z m 0,9.118 h 342.16229 v 9.903 L 0,235.217 Z m 0,9.117 h 342.16229 v 9.902 L 0,244.625 Z m 0,9.118 h 342.16229 v 9.901 L 0,254.034 Z m 0,9.117 h 342.16229 v 9.901 L 0,263.443 Z m 0,9.118 h 342.16229 v 9.899 L 0,272.851 Z m 0,9.118 h 342.16229 v 9.898 L 0,282.26 Z m 0,9.117 h 342.16229 v 9.898 L 0,291.669 Z m 0,9.118 h 342.16229 v 9.896 L 0,301.077 Z m 0,9.118 h 342.16229 v 9.895 L 0,310.486 Z M 0,310 h 342.16229 v 9.895 H 0 Z m 684.32459,329.789 h -342.1623 v -9.928 l 342.1623,9.929 z m 0,-9.118 h -342.1623 v -9.926 l 342.1623,9.636 z m 0,-9.117 h -342.1623 v -9.926 l 342.1623,9.344 z m 0,-9.118 h -342.1623 v -9.925 l 342.1623,9.053 z m 0,-9.118 h -342.1623 v -9.923 l 342.1623,8.76 z m 0,-9.117 h -342.1623 v -9.923 l 342.1623,8.468 z m 0,-9.118 h -342.1623 v -9.921 l 342.1623,8.176 z m 0,-9.118 h -342.1623 v -9.92 l 342.1623,7.884 z m 0,-9.117 h -342.1623 v -9.92 l 342.1623,7.592 z m 0,-9.118 h -342.1623 v -9.918 l 342.1623,7.3 z m 0,-9.117 h -342.1623 v -9.918 l 342.1623,7.008 z m 0,-9.118 h -342.1623 v -9.917 l 342.1623,6.716 z m 0,-9.118 h -342.1623 v -9.915 l 342.1623,6.424 z m 0,-9.117 h -342.1623 v -9.915 l 342.1623,6.132 z m 0,-9.118 h -342.1623 v -9.914 l 342.1623,5.84 z m 0,-9.117 h -342.1623 v -9.913 l 342.1623,5.548 z m 0,-9.118 h -342.1623 v -9.912 l 342.1623,5.256 z m 0,-9.118 h -342.1623 v -9.911 l 342.1623,4.964 z m 0,-9.117 h -342.1623 v -9.91 l 342.1623,4.672 z m 0,-9.118 h -342.1623 v -9.909 l 342.1623,4.38 z m 0,-9.118 h -342.1623 v -9.908 l 342.1623,4.089 z m 0,-9.117 h -342.1623 v -9.907 l 342.1623,3.796 z m 0,-9.118 h -342.1623 v -9.906 l 342.1623,3.504 z m 0,-9.117 h -342.1623 v -9.905 l 342.1623,3.212 z m 0,-9.118 h -342.1623 v -9.904 l 342.1623,2.92 z m 0,-9.118 h -342.1623 v -9.903 l 342.1623,2.628 z m 0,-9.117 h -342.1623 v -9.902 l 342.1623,2.336 z m 0,-9.118 h -342.1623 v -9.901 l 342.1623,2.044 z m 0,-9.117 h -342.1623 v -9.901 l 342.1623,1.752 z m 0,-9.118 h -342.1623 v -9.899 l 342.1623,1.46 z m 0,-9.118 h -342.1623 v -9.898 l 342.1623,1.168 z m 0,-9.117 h -342.1623 v -9.898 l 342.1623,0.876 z m 0,-9.118 h -342.1623 v -9.896 l 342.1623,0.584 z m 0,-9.118 h -342.1623 v -9.895 l 342.1623,0.292 z m 0,-9.117 h -342.1623 v -9.895 h 342.1623 z M 0,639.789 h 342.16229 v -9.928 L 0,639.79 Z m 0,-9.118 h 342.16229 v -9.926 L 0,630.381 Z m 0,-9.117 h 342.16229 v -9.926 L 0,620.972 Z m 0,-9.118 h 342.16229 v -9.925 L 0,611.564 Z m 0,-9.118 h 342.16229 v -9.923 L 0,602.155 Z m 0,-9.117 h 342.16229 v -9.923 L 0,592.746 Z m 0,-9.118 h 342.16229 v -9.921 L 0,583.338 Z m 0,-9.118 h 342.16229 v -9.92 L 0,573.929 Z m 0,-9.117 h 342.16229 v -9.92 L 0,564.52 Z m 0,-9.118 h 342.16229 v -9.918 L 0,555.112 Z m 0,-9.117 h 342.16229 v -9.918 L 0,545.703 Z m 0,-9.118 h 342.16229 v -9.917 L 0,536.294 Z m 0,-9.118 h 342.16229 v -9.915 L 0,526.886 Z m 0,-9.117 h 342.16229 v -9.915 L 0,517.477 Z m 0,-9.118 h 342.16229 v -9.914 L 0,508.068 Z m 0,-9.117 h 342.16229 v -9.913 L 0,498.66 Z m 0,-9.118 h 342.16229 v -9.912 L 0,489.251 Z m 0,-9.118 h 342.16229 v -9.911 L 0,479.842 Z m 0,-9.117 h 342.16229 v -9.91 L 0,470.434 Z m 0,-9.118 h 342.16229 v -9.909 L 0,461.025 Z m 0,-9.118 h 342.16229 v -9.908 L 0,451.617 Z m 0,-9.117 h 342.16229 v -9.907 L 0,442.208 Z m 0,-9.118 h 342.16229 v -9.906 L 0,432.799 Z m 0,-9.117 h 342.16229 v -9.905 L 0,423.391 Z m 0,-9.118 h 342.16229 v -9.904 L 0,413.982 Z m 0,-9.118 h 342.16229 v -9.903 L 0,404.573 Z m 0,-9.117 h 342.16229 v -9.902 L 0,395.165 Z m 0,-9.118 h 342.16229 v -9.901 L 0,385.756 Z m 0,-9.117 h 342.16229 v -9.901 L 0,376.347 Z m 0,-9.118 h 342.16229 v -9.899 L 0,366.939 Z m 0,-9.118 h 342.16229 v -9.898 L 0,357.53 Z m 0,-9.117 h 342.16229 v -9.898 L 0,348.121 Z m 0,-9.118 h 342.16229 v -9.896 L 0,338.713 Z m 0,-9.118 h 342.16229 v -9.895 L 0,329.304 Z m 0,-9.117 h 342.16229 v -9.895 H 0 Z" />
    </pattern>
  </defs>
  <sodipodi:namedview
     id="namedview14"
     pagecolor="#ffffff"
     bordercolor="#000000"
     borderopacity="0.25"
     inkscape:showpageshadow="2"
     inkscape:pageopacity="0.0"
     inkscape:pagecheckerboard="0"
     inkscape:deskcolor="#d1d1d1"
     inkscape:zoom="1.0593507"
     inkscape:cx="-174.16328"
     inkscape:cy="242.60143"
     inkscape:window-width="1920"
     inkscape:window-height="1006"
     inkscape:window-x="0"
     inkscape:window-y="0"
     inkscape:window-maximized="1"
     inkscape:current-layer="Water_Bottle" />
  <g
     id="Water_Bottle"
     transform="translate(-848.54097,-283.16618)">
    <g
       id="g95"
       clip-path="none"
       inkscape:label="g95">
      <g
         inkscape:label="Clip"
         id="g94">
        <g
           id="Layer_3">
          <clipPath
             id="96d11036-d29c-4812-9fb4-d1050d959baa">
            <path
               fill="#90dbf3"
               fill-rule="evenodd"
               stroke="none"
               d="m 936.664,297.599 c 0,0 0,0 0,0 -1.847,-0.508 -4.748,-0.396 -6.157,-1.694 -1.351,-1.245 -2.429,-3.931 -2.126,-5.742 0.314,-1.878 2.362,-3.995 4.041,-4.892 2.369,-1.265 6.248,-0.524 8.932,-0.638 22.247,-0.946 51.957,-0.149 74.224,-0.213 0.829,0.383 2.239,0.529 2.765,1.276 1.064,1.514 0.7,4.455 0,6.168 -0.785,1.921 -3.029,3.977 -4.892,4.891 -1.733,0.852 -4.466,0.596 -6.38,0.851 0,0 0,0 0,0 0,0.002 -0.577,13.133 0.85,18.503 1.437,5.405 4.711,12.482 8.507,16.589 8.29,8.969 26.129,12.047 35.584,19.778 10.831,8.857 23.528,23.266 30.126,35.604 6.85,12.81 11.063,32.206 13.302,46.559 2.39,15.319 3.702,36.306 1.532,51.657 -1.239,8.767 -6.057,19.752 -8.517,28.258 -2.346,8.115 -6.213,18.79 -7.519,27.136 -2.094,13.378 -1.685,31.582 -1.308,45.118 0.28,10.061 0.798,23.561 2.729,33.439 1.783,9.119 7.091,20.522 9.238,29.563 2.822,11.88 5.367,28.025 6.467,40.186 1.711,18.91 2.332,44.348 0.924,63.283 -1.258,16.911 0.572,41.843 -9.068,55.795 -5.595,8.096 -18.363,14.357 -27.618,17.703 -26.845,9.706 -66.347,6.686 -94.89,7.082 -23.815,0.33 -56.078,1.697 -79.311,-3.541 -6.428,-1.449 -15.874,-3.133 -20.536,-7.789 -10.654,-10.641 -11.594,-33.317 -14.163,-48.154 -3.811,-22.004 -4.333,-52.037 -3.541,-74.354 0.477,-13.458 1.442,-31.613 4.957,-44.613 1.988,-7.351 7.902,-16.023 9.914,-23.368 4.573,-16.699 5.92,-40.052 6.373,-57.36 0.321,-12.263 0.59,-28.879 -2.156,-40.835 -2.209,-9.615 -10.265,-20.798 -12.545,-30.396 -3.084,-12.984 -3.176,-31.048 -2.895,-44.39 0.339,-16.074 1.511,-37.802 5.914,-53.265 3.492,-12.266 10.423,-28.249 17.978,-38.524 6.461,-8.786 17.66,-18.572 26.71,-24.656 6.807,-4.576 16.842,-9.324 24.657,-11.814 2.362,-0.753 5.673,-1.132 8.105,-1.618 0,0 -0.153,-23.151 -0.207,-31.583 m 78.914,-13.179 c 0,0 0,0 0,0 m -8.507,13.186 z"
               id="path1" />
          </clipPath>
          <path
             fill="#90dbf3"
             fill-rule="evenodd"
             stroke="none"
             d="m 936.664,297.599 c 0,0 0,0 0,0 -1.847,-0.508 -4.748,-0.396 -6.157,-1.694 -1.351,-1.245 -2.429,-3.931 -2.126,-5.742 0.314,-1.878 2.362,-3.995 4.041,-4.892 2.369,-1.265 6.248,-0.524 8.932,-0.638 22.247,-0.946 51.957,-0.149 74.224,-0.213 0.829,0.383 2.239,0.529 2.765,1.276 1.064,1.514 0.7,4.455 0,6.168 -0.785,1.921 -3.029,3.977 -4.892,4.891 -1.733,0.852 -4.466,0.596 -6.38,0.851 0,0 0,0 0,0 0,0.002 -0.577,13.133 0.85,18.503 1.437,5.405 4.711,12.482 8.507,16.589 8.29,8.969 26.129,12.047 35.584,19.778 10.831,8.857 23.528,23.266 30.126,35.604 6.85,12.81 11.063,32.206 13.302,46.559 2.39,15.319 3.702,36.306 1.532,51.657 -1.239,8.767 -6.057,19.752 -8.517,28.258 -2.346,8.115 -6.213,18.79 -7.519,27.136 -2.094,13.378 -1.685,31.582 -1.308,45.118 0.28,10.061 0.798,23.561 2.729,33.439 1.783,9.119 7.091,20.522 9.238,29.563 2.822,11.88 5.367,28.025 6.467,40.186 1.711,18.91 2.332,44.348 0.924,63.283 -1.258,16.911 0.572,41.843 -9.068,55.795 -5.595,8.096 -18.363,14.357 -27.618,17.703 -26.845,9.706 -66.347,6.686 -94.89,7.082 -23.815,0.33 -56.078,1.697 -79.311,-3.541 -6.428,-1.449 -15.874,-3.133 -20.536,-7.789 -10.654,-10.641 -11.594,-33.317 -14.163,-48.154 -3.811,-22.004 -4.333,-52.037 -3.541,-74.354 0.477,-13.458 1.442,-31.613 4.957,-44.613 1.988,-7.351 7.902,-16.023 9.914,-23.368 4.573,-16.699 5.92,-40.052 6.373,-57.36 0.321,-12.263 0.59,-28.879 -2.156,-40.835 -2.209,-9.615 -10.265,-20.798 -12.545,-30.396 -3.084,-12.984 -3.176,-31.048 -2.895,-44.39 0.339,-16.074 1.511,-37.802 5.914,-53.265 3.492,-12.266 10.423,-28.249 17.978,-38.524 6.461,-8.786 17.66,-18.572 26.71,-24.656 6.807,-4.576 16.842,-9.324 24.657,-11.814 2.362,-0.753 5.673,-1.132 8.105,-1.618 0,0 -0.153,-23.151 -0.207,-31.583 m 78.914,-13.179 c 0,0 0,0 0,0 m -8.507,13.186 z"
             id="path2" />
          <path
             fill="none"
             stroke="#000000"
             stroke-width="2"
             stroke-linecap="round"
             stroke-linejoin="round"
             d="m 936.664,297.599 c 0,0 0,0 0,0 -1.847,-0.508 -4.748,-0.396 -6.157,-1.694 -1.351,-1.245 -2.429,-3.931 -2.126,-5.742 0.314,-1.878 2.362,-3.995 4.041,-4.892 2.369,-1.265 6.248,-0.524 8.932,-0.638 22.247,-0.946 51.957,-0.149 74.224,-0.213 0.829,0.383 2.239,0.529 2.765,1.276 1.064,1.514 0.7,4.455 0,6.168 -0.785,1.921 -3.029,3.977 -4.892,4.891 -1.733,0.852 -4.466,0.596 -6.38,0.851 0,0 0,0 0,0 0,0.002 -0.577,13.133 0.85,18.503 1.437,5.405 4.711,12.482 8.507,16.589 8.29,8.969 26.129,12.047 35.584,19.778 10.831,8.857 23.528,23.266 30.126,35.604 6.85,12.81 11.063,32.206 13.302,46.559 2.39,15.319 3.702,36.306 1.532,51.657 -1.239,8.767 -6.057,19.752 -8.517,28.258 -2.346,8.115 -6.213,18.79 -7.519,27.136 -2.094,13.378 -1.685,31.582 -1.308,45.118 0.28,10.061 0.798,23.561 2.729,33.439 1.783,9.119 7.091,20.522 9.238,29.563 2.822,11.88 5.367,28.025 6.467,40.186 1.711,18.91 2.332,44.348 0.924,63.283 -1.258,16.911 0.572,41.843 -9.068,55.795 -5.595,8.096 -18.363,14.357 -27.618,17.703 -26.845,9.706 -66.347,6.686 -94.89,7.082 -23.815,0.33 -56.078,1.697 -79.311,-3.541 -6.428,-1.449 -15.874,-3.133 -20.536,-7.789 -10.654,-10.641 -11.594,-33.317 -14.163,-48.154 -3.811,-22.004 -4.333,-52.037 -3.541,-74.354 0.477,-13.458 1.442,-31.613 4.957,-44.613 1.988,-7.351 7.902,-16.023 9.914,-23.368 4.573,-16.699 5.92,-40.052 6.373,-57.36 0.321,-12.263 0.59,-28.879 -2.156,-40.835 -2.209,-9.615 -10.265,-20.798 -12.545,-30.396 -3.084,-12.984 -3.176,-31.048 -2.895,-44.39 0.339,-16.074 1.511,-37.802 5.914,-53.265 3.492,-12.266 10.423,-28.249 17.978,-38.524 6.461,-8.786 17.66,-18.572 26.71,-24.656 6.807,-4.576 16.842,-9.324 24.657,-11.814 2.362,-0.753 5.673,-1.132 8.105,-1.618 0,0 0,0 0,0 0,0 -0.153,-23.151 -0.207,-31.583 m 78.914,-13.179 c 0,0 0,0 0,0 m -8.507,13.186 c 0,0 0,0 0,0"
             id="path3" />
          <path
             fill="#ccecfb"
             fill-rule="evenodd"
             stroke="#000000"
             stroke-width="2"
             stroke-opacity="0"
             stroke-linecap="round"
             stroke-linejoin="round"
             d="m 851.166,455.395 c 75.825,0.156 176.924,0.363 252.748,0.518 0,0 0,0 0,0 -0.777,-10.255 -0.311,-24.154 -2.59,-34.183 -3.829,-16.854 -11.483,-39.445 -21.752,-53.346 -7.141,-9.665 -20.443,-19.41 -30.558,-25.897 -6.962,-4.464 -18.885,-6.194 -24.861,-11.912 -4.623,-4.424 -10.709,-12.256 -10.358,-18.645 0.277,-5.035 7.962,-9.129 9.323,-13.984 1.216,-4.342 2.125,-11.367 -0.518,-15.02 -8.344,-11.529 -32.391,-8.325 -46.614,-8.805 -17.373,-0.586 -48.829,-7.822 -57.489,7.251 -2.355,4.098 0.253,11.43 2.589,15.538 2.125,3.736 9.861,5.147 10.877,9.323 1.593,6.549 -5.227,15.285 -9.841,20.199 -9.657,10.282 -32.331,10.919 -41.952,21.235 -17.837,19.124 -26.535,55.916 -30.04,81.832 -1.042,7.705 0.725,18.127 1.036,25.896 z"
             clip-path="url(#96d11036-d29c-4812-9fb4-d1050d959baa)"
             id="path4" />
          <path
             fill="#78c9e4"
             fill-rule="evenodd"
             fill-opacity="0.317647"
             stroke="none"
             d="m 1039.598,518.758 c 0,0 0,0 0,0 -39.041,-0.456 -91.114,-2.782 -130.138,-1.52 -1.23,0.04 -2.887,0.49 -4.096,0.256 -0.528,-0.102 -1.219,-0.382 -1.645,-0.71 -4.044,-3.112 -7.276,-9.596 -9.132,-14.349 -2.059,-5.274 -2.414,-12.99 -3.261,-18.589 -0.93,-6.143 -2.52,-14.332 -2.609,-20.545 -0.191,-13.242 2.122,-30.942 5.064,-43.855 2.266,-9.941 6.413,-23.041 10.934,-32.179 4.479,-9.052 12.06,-20.398 18.763,-27.953 6.541,-7.372 17.725,-14.674 24.889,-21.443 4.429,-4.184 11.544,-9.051 14.168,-14.55 1.7,-3.563 1.563,-9.087 1.914,-13.019 1.5,-16.804 0.623,-39.359 0.89,-56.227 0,0 0,0 0,0 -10.286,-0.753 -24.356,-5.294 -34.286,-2.509 -4.891,1.372 -14.215,9.198 -14.216,9.199 0,16.558 7.529,40.446 0,55.192 -0.162,0.316 -0.558,0.616 -0.837,0.836 -7.842,6.19 -21.497,9.61 -29.268,15.889 -11.67,9.429 -25.504,24.918 -31.97,38.455 -12.314,25.781 -15.651,65.391 -15.537,93.962 0.064,15.947 4.154,37.089 8.139,52.53 2.946,11.421 11.434,25.349 13.317,36.993 3.423,21.17 1.293,50.483 -3.438,71.399 -2.68,11.853 -12.464,25.751 -14.96,37.644 -4.729,22.531 -2.978,53.8 -0.966,76.734 2.216,25.26 1.912,61.877 15.926,83.009 4.675,7.048 14.51,13.855 22.2,17.374 14.675,6.715 53.082,8.686 53.087,8.687 -9.266,-10.859 -22.954,-24.327 -30.887,-36.196 -4.062,-6.078 -8.798,-14.708 -11.387,-21.545 -3.818,-10.084 -6.771,-24.315 -8.113,-35.013 -2.114,-16.847 -2.079,-39.669 -0.695,-56.591 0.893,-10.91 3.486,-25.345 6.093,-35.976 2.072,-8.449 6.271,-19.307 8.845,-27.617 3.295,-10.636 8.163,-24.704 10.628,-35.563 2.803,-12.348 0.632,-30.477 6.486,-41.705 4.564,-8.753 14.968,-17.993 23.388,-23.146 8.955,-5.48 23.007,-8.643 33.272,-10.85 20.455,-4.397 69.431,-6.509 69.438,-6.509 z"
             clip-path="url(#96d11036-d29c-4812-9fb4-d1050d959baa)"
             id="path5" />
          <path
             fill="none"
             stroke="#000000"
             stroke-width="2"
             stroke-opacity="0"
             stroke-linecap="round"
             stroke-linejoin="round"
             d="m 932.53,849.469 c 0,0 0,0 0,0 -0.005,-0.001 -38.412,-1.972 -53.087,-8.687 -7.69,-3.519 -17.525,-10.326 -22.2,-17.374 -14.014,-21.132 -13.71,-57.749 -15.926,-83.009 -2.012,-22.934 -3.763,-54.203 0.966,-76.734 2.496,-11.893 12.28,-25.791 14.96,-37.644 4.731,-20.916 6.861,-50.229 3.438,-71.399 -1.883,-11.644 -10.371,-25.572 -13.317,-36.993 -3.985,-15.441 -8.075,-36.583 -8.139,-52.53 -0.114,-28.571 3.223,-68.181 15.537,-93.962 6.466,-13.537 20.3,-29.026 31.97,-38.455 7.771,-6.279 21.426,-9.699 29.268,-15.889 0.279,-0.22 0.675,-0.52 0.837,-0.836 7.529,-14.746 0,-38.634 0,-55.192 0,0 0,0 0,0 10e-4,-10e-4 9.325,-7.827 14.216,-9.199 9.93,-2.785 24,1.756 34.286,2.509 -0.267,16.868 0.61,39.423 -0.89,56.227 -0.351,3.932 -0.214,9.456 -1.914,13.019 -2.624,5.499 -9.739,10.366 -14.168,14.55 -7.164,6.769 -18.348,14.071 -24.889,21.443 -6.703,7.555 -14.284,18.901 -18.763,27.953 -4.521,9.138 -8.668,22.238 -10.934,32.179 -2.942,12.913 -5.255,30.613 -5.064,43.855 0.089,6.213 1.679,14.402 2.609,20.545 0.847,5.599 1.202,13.315 3.261,18.589 1.856,4.753 5.088,11.237 9.132,14.349 0.426,0.328 1.117,0.608 1.645,0.71 1.209,0.234 2.866,-0.216 4.096,-0.256 39.024,-1.262 91.097,1.064 130.138,1.52 0,0 0,0 0,0 -0.01,0 -48.983,2.112 -69.438,6.509 -10.265,2.207 -24.317,5.37 -33.272,10.85 -8.42,5.153 -18.824,14.393 -23.388,23.146 -5.854,11.228 -3.683,29.357 -6.486,41.705 -2.465,10.859 -7.333,24.927 -10.628,35.563 -2.574,8.31 -6.773,19.168 -8.845,27.617 -2.607,10.631 -5.2,25.066 -6.093,35.976 -1.384,16.922 -1.419,39.744 0.695,56.591 1.342,10.698 4.295,24.929 8.113,35.013 2.589,6.837 7.325,15.467 11.387,21.545 7.933,11.869 21.621,25.337 30.887,36.196 m 32.809,-595.394 c 0,0 0,0 0,0 m 74.259,264.683 c 0,0 0,0 0,0"
             clip-path="url(#96d11036-d29c-4812-9fb4-d1050d959baa)"
             id="path6" />
          <path
             fill="#257de9"
             fill-rule="evenodd"
             stroke="none"
             d="m 851.111,641.435 c 0,0 0,0 0,0 -0.175,-36.687 -0.408,-85.602 -0.582,-122.289 0,0 0,0 0,0 73.897,0.524 172.427,1.223 246.325,1.747 0,0 0,0 0,0 0.699,35.289 2.329,117.619 2.329,117.631 -74.421,0.873 -248.048,2.911 -248.072,2.911 z"
             clip-path="url(#96d11036-d29c-4812-9fb4-d1050d959baa)"
             id="path7" />
          <path
             fill="none"
             stroke="#000000"
             stroke-width="2"
             stroke-linecap="round"
             stroke-linejoin="round"
             d="m 1099.183,638.524 c 0,0 0,0 0,0 0,-0.012 -1.63,-82.342 -2.329,-117.631 -73.898,-0.524 -172.428,-1.223 -246.325,-1.747 0.174,36.687 0.407,85.602 0.582,122.289 0,0 0,0 0,0 0.024,0 173.651,-2.038 248.072,-2.911 M 850.529,519.146 c 0,0 0,0 0,0 m 246.325,1.747 c 0,0 0,0 0,0 M 851.111,641.435 c 0,0 0,0 0,0"
             clip-path="url(#96d11036-d29c-4812-9fb4-d1050d959baa)"
             id="path8" />
          <path
             fill="#e9e2e2"
             fill-rule="evenodd"
             stroke="#000000"
             stroke-width="2"
             stroke-linecap="round"
             stroke-linejoin="round"
             d="m 1089.156,610.487 c 0,0 0,0 0,0 -37.627,0 -87.84,1.805 -125.425,0 -4.908,-0.235 -11.688,0.272 -16.324,-1.361 -3.118,-1.097 -7.286,-3.327 -9.251,-5.985 -2.459,-3.327 -3.076,-9.219 -3.536,-13.331 -1.037,-9.265 -0.6,-22.037 1.904,-31.016 1.245,-4.466 3.425,-10.7 6.802,-13.876 3.037,-2.856 8.727,-4.495 12.787,-5.442 4.776,-1.113 11.423,-0.688 16.325,-0.816 7.588,-0.197 17.711,0 25.302,0 28.078,0 65.515,0 93.593,0 0,0 0,0 0,0 -0.653,21.548 -2.177,71.82 -2.177,71.827 z"
             clip-path="url(#96d11036-d29c-4812-9fb4-d1050d959baa)"
             id="path9" />
          <path
             fill="#257de9"
             fill-rule="evenodd"
             stroke="#000000"
             stroke-width="1"
             stroke-linecap="round"
             stroke-linejoin="round"
             d="m 1020.056,560.473 c 0,0 0,0 0,0 -0.352,0.289 -0.846,0.647 -1.173,0.964 -2.674,2.594 -6.429,6.164 -7.881,9.594 -1.391,3.288 -1.962,8.3 -1.37,11.821 0.354,2.11 1.343,5.055 2.912,6.51 2.181,2.022 6.448,3.101 9.422,3.083 3.153,-0.019 7.86,-1.053 9.936,-3.426 1.429,-1.633 1.731,-4.855 1.713,-7.024 -0.027,-3.367 -1.639,-7.751 -3.083,-10.793 -1.094,-2.305 -3.005,-5.207 -4.797,-7.024 -1.121,-1.136 -3.012,-2.192 -4.302,-3.131 0,0 0,0 0,0 -0.414,-0.173 -1.377,-0.574 -1.377,-0.574 z"
             clip-path="url(#96d11036-d29c-4812-9fb4-d1050d959baa)"
             id="path10" />
        </g>
      </g>
    </g>
    <use
       x="0"
       y="0"
       xlink:href="#g94"
       id="use95" />
    <path
       fill="#90dbf3"
       fill-rule="evenodd"
       fill-opacity="0"
       stroke="none"
       d="m 936.664,297.599 c 0,0 0,0 0,0 -1.847,-0.508 -4.748,-0.396 -6.157,-1.694 -1.351,-1.245 -2.429,-3.931 -2.126,-5.742 0.314,-1.878 2.362,-3.995 4.041,-4.892 2.369,-1.265 6.248,-0.524 8.932,-0.638 22.247,-0.946 51.957,-0.149 74.224,-0.213 0.829,0.383 2.239,0.529 2.765,1.276 1.064,1.514 0.7,4.455 0,6.168 -0.785,1.921 -3.029,3.977 -4.892,4.891 -1.733,0.852 -4.466,0.596 -6.38,0.851 0,0 0,0 0,0 0,0.002 -0.577,13.133 0.85,18.503 1.437,5.405 4.711,12.482 8.507,16.589 8.29,8.969 26.129,12.047 35.584,19.778 10.831,8.857 23.528,23.266 30.126,35.604 6.85,12.81 11.063,32.206 13.302,46.559 2.39,15.319 3.702,36.306 1.532,51.657 -1.239,8.767 -6.057,19.752 -8.517,28.258 -2.346,8.115 -6.213,18.79 -7.519,27.136 -2.094,13.378 -1.685,31.582 -1.308,45.118 0.28,10.061 0.798,23.561 2.729,33.439 1.783,9.119 7.091,20.522 9.238,29.563 2.822,11.88 5.367,28.025 6.467,40.186 1.711,18.91 2.332,44.348 0.924,63.283 -1.258,16.911 0.572,41.843 -9.068,55.795 -5.595,8.096 -18.363,14.357 -27.618,17.703 -26.845,9.706 -66.347,6.686 -94.89,7.082 -23.815,0.33 -56.078,1.697 -79.311,-3.541 -6.428,-1.449 -15.874,-3.133 -20.536,-7.789 -10.654,-10.641 -11.594,-33.317 -14.163,-48.154 -3.811,-22.004 -4.333,-52.037 -3.541,-74.354 0.477,-13.458 1.442,-31.613 4.957,-44.613 1.988,-7.351 7.902,-16.023 9.914,-23.368 4.573,-16.699 5.92,-40.052 6.373,-57.36 0.321,-12.263 0.59,-28.879 -2.156,-40.835 -2.209,-9.615 -10.265,-20.798 -12.545,-30.396 -3.084,-12.984 -3.176,-31.048 -2.895,-44.39 0.339,-16.074 1.511,-37.802 5.914,-53.265 3.492,-12.266 10.423,-28.249 17.978,-38.524 6.461,-8.786 17.66,-18.572 26.71,-24.656 6.807,-4.576 16.842,-9.324 24.657,-11.814 2.362,-0.753 5.673,-1.132 8.105,-1.618 0,0 -0.153,-23.151 -0.207,-31.583 m 78.914,-13.179 c 0,0 0,0 0,0 m -8.507,13.186 z"
       id="path11"
       clip-path="none" />
    <path
       fill="none"
       stroke="#000000"
       stroke-width="2"
       stroke-linecap="round"
       stroke-linejoin="round"
       d="m 936.664,297.599 c 0,0 0,0 0,0 -1.847,-0.508 -4.748,-0.396 -6.157,-1.694 -1.351,-1.245 -2.429,-3.931 -2.126,-5.742 0.314,-1.878 2.362,-3.995 4.041,-4.892 2.369,-1.265 6.248,-0.524 8.932,-0.638 22.247,-0.946 51.957,-0.149 74.224,-0.213 0.829,0.383 2.239,0.529 2.765,1.276 1.064,1.514 0.7,4.455 0,6.168 -0.785,1.921 -3.029,3.977 -4.892,4.891 -1.733,0.852 -4.466,0.596 -6.38,0.851 0,0 0,0 0,0 0,0.002 -0.577,13.133 0.85,18.503 1.437,5.405 4.711,12.482 8.507,16.589 8.29,8.969 26.129,12.047 35.584,19.778 10.831,8.857 23.528,23.266 30.126,35.604 6.85,12.81 11.063,32.206 13.302,46.559 2.39,15.319 3.702,36.306 1.532,51.657 -1.239,8.767 -6.057,19.752 -8.517,28.258 -2.346,8.115 -6.213,18.79 -7.519,27.136 -2.094,13.378 -1.685,31.582 -1.308,45.118 0.28,10.061 0.798,23.561 2.729,33.439 1.783,9.119 7.091,20.522 9.238,29.563 2.822,11.88 5.367,28.025 6.467,40.186 1.711,18.91 2.332,44.348 0.924,63.283 -1.258,16.911 0.572,41.843 -9.068,55.795 -5.595,8.096 -18.363,14.357 -27.618,17.703 -26.845,9.706 -66.347,6.686 -94.89,7.082 -23.815,0.33 -56.078,1.697 -79.311,-3.541 -6.428,-1.449 -15.874,-3.133 -20.536,-7.789 -10.654,-10.641 -11.594,-33.317 -14.163,-48.154 -3.811,-22.004 -4.333,-52.037 -3.541,-74.354 0.477,-13.458 1.442,-31.613 4.957,-44.613 1.988,-7.351 7.902,-16.023 9.914,-23.368 4.573,-16.699 5.92,-40.052 6.373,-57.36 0.321,-12.263 0.59,-28.879 -2.156,-40.835 -2.209,-9.615 -10.265,-20.798 -12.545,-30.396 -3.084,-12.984 -3.176,-31.048 -2.895,-44.39 0.339,-16.074 1.511,-37.802 5.914,-53.265 3.492,-12.266 10.423,-28.249 17.978,-38.524 6.461,-8.786 17.66,-18.572 26.71,-24.656 6.807,-4.576 16.842,-9.324 24.657,-11.814 2.362,-0.753 5.673,-1.132 8.105,-1.618 0,0 0,0 0,0 0,0 -0.153,-23.151 -0.207,-31.583 m 78.914,-13.179 c 0,0 0,0 0,0 m -8.507,13.186 c 0,0 0,0 0,0"
       id="path12"
       clip-path="none" />
    <path
       fill="#1375bc"
       fill-rule="evenodd"
       stroke="none"
       d="m 975.26285,448.9471 c -17.62983,-23.77867 -23.15233,-66.14533 -0.30444,-97.84153 0,0 -2.42004,0.30663 -3.45763,0.4379 0,0 -0.16545,2.39453 -0.23522,3.42076 -0.001,0 -2.42004,0.30663 -3.45763,0.4379 0,0 -0.26937,-3.29016 -0.38582,-4.7008 -0.002,4.4e-4 -15.90698,0.35014 -22.72454,0.49963 0,10e-4 -2.2944,3.36726 -3.07249,4.92571 -0.92019,1.84491 -1.71484,4.49343 -2.44978,6.41875 -2.4e-4,0.008 -11.43282,32.08605 0.11619,75.87502 0,0 1.69113,4.79769 2.86187,6.61701 0.87831,1.36624 2.51595,2.83509 3.59379,4.04969 0.002,-4.5e-4 15.13044,-0.1977 21.61421,-0.28214 0,0 0.0701,-2.81723 0.10031,-4.02433 0,0 3.16218,0.05 4.51725,0.0718 0,0 0.0778,2.80077 0.11061,4.00067 10e-4,-10e-6 2.22122,0.066 3.17332,0.094 z"
       id="path13"
       style="fill:#bc1313;fill-opacity:1"
       sodipodi:nodetypes="cccccccccccccccccc"
       clip-path="none" />
    <path
       style="fill:none;fill-opacity:1"
       d="m 961.67396,353.04644 c 0,0 43.89484,44.3668 0.70799,98.64533 -43.18684,54.27853 -42.95084,54.51453 -42.95084,54.51453 l 0.23599,0.23599"
       id="path82"
       clip-path="none" />
    <path
       style="fill:none;fill-opacity:1;stroke:url(#pattern90);stroke-opacity:1"
       d="m 975.1256,350.9225 c 0,0 43.1869,43.89481 -0.236,98.17334"
       id="path83"
       clip-path="none" />
  </g>
</svg>
